<svg xmlns="http://www.w3.org/2000/svg" xmlns:xlink="http://www.w3.org/1999/xlink" version="1.1" width="256" height="256" viewBox="0 0 256 256" xml:space="preserve">
<g style="stroke: none; stroke-width: 0; stroke-dasharray: none; stroke-linecap: butt; stroke-linejoin: miter; stroke-miterlimit: 10; fill: none; fill-rule: nonzero; opacity: 1;" transform="translate(1.4065934065934016 1.4065934065934016) scale(2.81 2.81)">
	<circle cx="45" cy="45" r="43" style="stroke: none; stroke-width: 1; stroke-dasharray: none; stroke-linecap: butt; stroke-linejoin: miter; stroke-miterlimit: 10; fill: rgb(103,183,92); fill-rule: nonzero; opacity: 1;" transform="  matrix(1 0 0 1 0 0) "/>
	<path d="M 42.979 60.738 c -0.019 0 -0.038 0 -0.056 -0.001 c -0.55 -0.016 -1.069 -0.256 -1.435 -0.666 L 27.497 44.413 c -0.736 -0.824 -0.665 -2.088 0.159 -2.824 c 0.824 -0.735 2.087 -0.666 2.824 0.159 l 12.582 14.08 l 36.222 -36.222 c 0.781 -0.781 2.047 -0.781 2.828 0 c 0.781 0.781 0.781 2.047 0 2.828 L 44.394 60.152 C 44.018 60.528 43.509 60.738 42.979 60.738 z" style="stroke: none; stroke-width: 1; stroke-dasharray: none; stroke-linecap: butt; stroke-linejoin: miter; stroke-miterlimit: 10; fill: rgb(0,0,0); fill-rule: nonzero; opacity: 1;" transform=" matrix(1 0 0 1 0 0) " stroke-linecap="round"/>
	<path d="M 45 90 C 20.187 90 0 69.813 0 45 C 0 20.187 20.187 0 45 0 c 10.152 0 19.735 3.3 27.711 9.542 c 0.87 0.681 1.023 1.938 0.343 2.808 c -0.681 0.871 -1.939 1.022 -2.808 0.343 C 62.98 7.006 54.25 4 45 4 C 22.393 4 4 22.393 4 45 s 18.393 41 41 41 s 41 -18.393 41 -41 c 0 -3.465 -0.433 -6.907 -1.287 -10.231 c -0.274 -1.07 0.37 -2.16 1.44 -2.435 c 1.067 -0.277 2.159 0.371 2.435 1.439 C 89.524 37.423 90 41.2 90 45 C 90 69.813 69.813 90 45 90 z" style="stroke: none; stroke-width: 1; stroke-dasharray: none; stroke-linecap: butt; stroke-linejoin: miter; stroke-miterlimit: 10; fill: rgb(0,0,0); fill-rule: nonzero; opacity: 1;" transform=" matrix(1 0 0 1 0 0) " stroke-linecap="round"/>
</g>
</svg>